<svg xmlns="http://www.w3.org/2000/svg" viewBox="0 0 529 512" width="529" height="512">
	<style>
		tspan { white-space:pre }
		.shp0 { fill: #ffffff } 
	</style>
	<g id="Page-1">
		<g id="phone-alt-solid">
			<path id="Path" class="shp0" d="M497.39 361.8L385.39 313.8C375.56 309.61 364.15 312.42 357.39 320.7L307.79 381.3C229.95 344.6 167.3 281.95 130.6 204.11L191.2 154.51C199.49 147.76 202.31 136.34 198.1 126.51L150.1 14.51C145.46 3.87 133.92 -1.96 122.6 0.61L18.6 24.61C7.71 27.12 0 36.82 0 48C0 304.5 207.9 512 464 512C475.18 512.01 484.88 504.29 487.4 493.4L511.4 389.4C513.96 378.03 508.08 366.45 497.39 361.8L497.39 361.8ZM521.93 245.89L490.11 245.89L490.11 214.07C490.11 210.17 486.94 207 483.04 207L475.96 207C472.06 207 468.89 210.17 468.89 214.07L468.89 245.89L437.07 245.89C433.17 245.89 430 249.06 430 252.96L430 260.04C430 263.94 433.17 267.11 437.07 267.11L468.89 267.11L468.89 298.93C468.89 302.83 472.06 306 475.96 306L483.04 306C486.94 306 490.11 302.83 490.11 298.93L490.11 267.11L521.93 267.11C525.83 267.11 529 263.94 529 260.04L529 252.96C529 249.06 525.83 245.89 521.93 245.89Z" />
		</g>
	</g>
</svg>